<svg width="26" height="26" viewBox="0 0 26 26" fill="none" xmlns="http://www.w3.org/2000/svg">
<path d="M13 0C10.4288 0 7.91543 0.762437 5.77759 2.19089C3.63975 3.61935 1.97351 5.64967 0.989572 8.02511C0.00563263 10.4006 -0.251811 13.0144 0.249797 15.5362C0.751405 18.0579 1.98953 20.3743 3.80762 22.1924C5.6257 24.0105 7.94208 25.2486 10.4638 25.7502C12.9856 26.2518 15.5994 25.9944 17.9749 25.0104C20.3503 24.0265 22.3806 22.3602 23.8091 20.2224C25.2376 18.0846 26 15.5712 26 13C26 12.3356 25.9422 11.6711 25.8556 11.0356C25.1338 12.0476 24.1802 12.8721 23.0744 13.44C21.9687 14.008 20.7431 14.3029 19.5 14.3C17.8464 14.3 16.2355 13.7748 14.8997 12.8002C13.5639 11.8255 12.5722 10.4517 12.0677 8.87699C11.5631 7.30225 11.5718 5.60795 12.0924 4.03846C12.613 2.46897 13.6187 1.1054 14.9644 0.144444C14.3289 0.0577776 13.6644 0 13 0Z" fill="black"/>
</svg>
