<svg width="19" height="26" viewBox="0 0 19 26" fill="none" xmlns="http://www.w3.org/2000/svg">
<path d="M9.09319e-06 9.75019C-4.01634e-05 8.14018 0.388396 6.55521 1.13063 5.13682C1.87287 3.71842 2.94581 2.51074 4.25364 1.62161C5.56147 0.732484 7.06349 0.189586 8.62558 0.0413921C10.1877 -0.106801 11.7612 0.144323 13.2057 0.772342C14.6502 1.40036 15.9206 2.38573 16.9036 3.64045C17.8866 4.89518 18.5516 6.38021 18.8391 7.96295C19.1266 9.54569 19.0277 11.1769 18.5513 12.7108C18.0749 14.2448 17.2358 15.6338 16.1088 16.7539C15.7874 17.0724 15.5404 17.4039 15.3916 17.7597L14.1851 20.6343C14.1239 20.78 14.0224 20.9041 13.8933 20.9913C13.7641 21.0785 13.6129 21.125 13.4583 21.1251H5.54167C5.38681 21.1253 5.23527 21.079 5.10581 20.9918C4.97635 20.9045 4.87467 20.7803 4.81334 20.6343L3.60842 17.7581C3.43464 17.379 3.19109 17.038 2.89117 16.7539C1.97512 15.846 1.24692 14.7578 0.750152 13.5544C0.25338 12.351 -0.00175571 11.0571 9.09319e-06 9.75019ZM4.75001 23.5625C4.75001 23.347 4.83341 23.1404 4.98188 22.988C5.13035 22.8356 5.33171 22.75 5.54167 22.75H13.4583C13.6683 22.75 13.8697 22.8356 14.0181 22.988C14.1666 23.1404 14.25 23.347 14.25 23.5625C14.25 23.778 14.1666 23.9847 14.0181 24.137C13.8697 24.2894 13.6683 24.375 13.4583 24.375L13.1037 25.1014C12.9723 25.3713 12.7703 25.5983 12.5203 25.757C12.2703 25.9157 11.9821 25.9998 11.6882 26H7.31184C7.01787 25.9998 6.72976 25.9157 6.47976 25.757C6.22975 25.5983 6.02774 25.3713 5.89634 25.1014L5.54167 24.375C5.33171 24.375 5.13035 24.2894 4.98188 24.137C4.83341 23.9847 4.75001 23.778 4.75001 23.5625Z" fill="white"/>
</svg>
