<?xml version="1.0" encoding="UTF-8" standalone="no"?>
<svg
   width="118"
   height="59"
   viewBox="0 0 118 59"
   fill="none"
   version="1.1"
   id="svg1"
   sodipodi:docname="theme-mode.svg"
   inkscape:version="1.4.2 (2aeb623e1d, 2025-05-12)"
   xmlns:inkscape="http://www.inkscape.org/namespaces/inkscape"
   xmlns:sodipodi="http://sodipodi.sourceforge.net/DTD/sodipodi-0.dtd"
   xmlns="http://www.w3.org/2000/svg"
   xmlns:svg="http://www.w3.org/2000/svg">
  <defs
     id="defs1" />
  <sodipodi:namedview
     id="namedview1"
     pagecolor="#ffffff"
     bordercolor="#000000"
     borderopacity="0.25"
     inkscape:showpageshadow="2"
     inkscape:pageopacity="0.0"
     inkscape:pagecheckerboard="0"
     inkscape:deskcolor="#d1d1d1"
     showgrid="false"
     inkscape:zoom="3.8605769"
     inkscape:cx="0.38854296"
     inkscape:cy="52.712329"
     inkscape:window-width="1920"
     inkscape:window-height="1011"
     inkscape:window-x="0"
     inkscape:window-y="0"
     inkscape:window-maximized="1"
     inkscape:current-layer="svg1">
    <inkscape:grid
       id="grid2"
       units="px"
       originx="2.1982956e-07"
       originy="0"
       spacingx="1"
       spacingy="1"
       empcolor="#0099e5"
       empopacity="0.30196078"
       color="#0099e5"
       opacity="0.14901961"
       empspacing="5"
       enabled="true"
       visible="false" />
  </sodipodi:namedview>
  <path
     d="m 29,16 c -2.5712,0 -5.08457,0.762437 -7.22241,2.19089 -2.13784,1.42846 -3.80408,3.45878 -4.788018,5.83422 -0.983939,2.37549 -1.241383,4.98929 -0.739775,7.51109 0.501608,2.5217 1.739733,4.8381 3.557823,6.6562 1.81808,1.8181 4.13446,3.0562 6.65618,3.5578 2.5218,0.5016 5.1356,0.2442 7.5111,-0.7398 2.3754,-0.9839 4.4057,-2.6502 5.8342,-4.788 C 41.2376,34.0846 42,31.5712 42,29 c 0,-0.6644 -0.0578,-1.3289 -0.1444,-1.9644 -0.7218,1.012 -1.6754,1.8365 -2.7812,2.4044 -1.1057,0.568 -2.3313,0.8629 -3.5744,0.86 -1.6536,0 -3.2645,-0.5252 -4.6003,-1.4998 -1.3358,-0.9747 -2.3275,-2.3485 -2.832,-3.92321 -0.5046,-1.57474 -0.4959,-3.26904 0.0247,-4.83853 0.5206,-1.56949 1.5263,-2.93306 2.872,-3.894016 C 30.3289,16.057778 29.6644,16 29,16 Z"
     fill="#000000"
     id="path1"
     sodipodi:nodetypes="sccccccsscccccscs" />
  <path
     d="m 79.000009,25.75019 c -4.9e-5,-1.61001 0.388387,-3.19498 1.130621,-4.61337 0.74224,-1.4184 1.81518,-2.62608 3.12301,-3.51521 1.30783,-0.889126 2.80985,-1.432024 4.37194,-1.580218 1.56212,-0.148193 3.13562,0.102931 4.58012,0.73095 1.4445,0.628018 2.7149,1.613388 3.6979,2.868108 0.983,1.25473 1.648,2.73976 1.9355,4.3225 0.2875,1.58274 0.1886,3.21395 -0.2878,4.74785 -0.4764,1.534 -1.3155,2.923 -2.4425,4.0431 -0.3214,0.3185 -0.5684,0.65 -0.7172,1.0058 l -1.2065,2.8746 c -0.0612,0.1457 -0.1627,0.2698 -0.2918,0.357 -0.1292,0.0872 -0.2804,0.1337 -0.435,0.1338 h -7.91663 c -0.15486,2e-4 -0.3064,-0.0461 -0.43586,-0.1333 -0.12946,-0.0873 -0.23114,-0.2115 -0.29247,-0.3575 L 82.60842,33.7581 C 82.43464,33.379 82.19109,33.038 81.89117,32.7539 80.97512,31.846 80.24692,30.7578 79.750152,29.5544 79.25338,28.351 78.998244,27.0571 79.000009,25.75019 Z M 83.75001,39.5625 c 0,-0.2155 0.0834,-0.4221 0.23187,-0.5745 0.14847,-0.1524 0.34983,-0.238 0.55979,-0.238 h 7.91663 c 0.21,0 0.4114,0.0856 0.5598,0.238 0.1485,0.1524 0.2319,0.359 0.2319,0.5745 0,0.2155 -0.0834,0.4222 -0.2319,0.5745 -0.1484,0.1524 -0.3498,0.238 -0.5598,0.238 l -0.3546,0.7264 c -0.1314,0.2699 -0.3334,0.4969 -0.5834,0.6556 -0.25,0.1587 -0.5382,0.2428 -0.8321,0.243 h -4.37636 c -0.29397,-2e-4 -0.58208,-0.0843 -0.83208,-0.243 -0.25001,-0.1587 -0.45202,-0.3857 -0.58342,-0.6556 L 84.54167,40.375 c -0.20996,0 -0.41132,-0.0856 -0.55979,-0.238 -0.14847,-0.1523 -0.23187,-0.359 -0.23187,-0.5745 z"
     fill="#ffffff"
     id="path1-5" />
</svg>
