<svg width="17" height="14" viewBox="0 0 17 14" fill="none" xmlns="http://www.w3.org/2000/svg">
<path d="M16.3929 0H0.607143C0.271317 0 0 0.284375 0 0.636364V13.3636C0 13.7156 0.271317 14 0.607143 14H16.3929C16.7287 14 17 13.7156 17 13.3636V0.636364C17 0.284375 16.7287 0 16.3929 0ZM14.8598 2.16562L8.87377 7.04773C8.72578 7.16903 8.51897 7.16903 8.37098 7.04773L2.38304 2.16562C2.36046 2.14737 2.34391 2.12216 2.33569 2.09355C2.32747 2.06493 2.328 2.03434 2.3372 2.00605C2.34641 1.97777 2.36383 1.95321 2.38702 1.93582C2.41021 1.91843 2.43801 1.90909 2.46652 1.90909H14.7763C14.8049 1.90909 14.8327 1.91843 14.8558 1.93582C14.879 1.95321 14.8965 1.97777 14.9057 2.00605C14.9149 2.03434 14.9154 2.06493 14.9072 2.09355C14.8989 2.12216 14.8824 2.14737 14.8598 2.16562Z" fill="black"/>
</svg>
