<svg width="14" height="20" viewBox="0 0 14 20" fill="none" xmlns="http://www.w3.org/2000/svg">
<path d="M5.16683 16.3553H8.8335C8.95505 16.3553 9.07163 16.307 9.15759 16.221C9.24354 16.1351 9.29183 16.0185 9.29183 15.8969C9.29183 15.7754 9.24354 15.6588 9.15759 15.5728C9.07163 15.4869 8.95505 15.4386 8.8335 15.4386H5.16683C5.04527 15.4386 4.92869 15.4869 4.84274 15.5728C4.75678 15.6588 4.7085 15.7754 4.7085 15.8969C4.7085 16.0185 4.75678 16.1351 4.84274 16.221C4.92869 16.307 5.04527 16.3553 5.16683 16.3553Z" fill="black"/>
<path d="M11.3332 19.1089H2.66702C2.09191 19.0746 1.55362 18.8146 1.16925 18.3854C0.784884 17.9562 0.585544 17.3926 0.6146 16.8173V3.18275C0.585544 2.60735 0.784884 2.04376 1.16925 1.61459C1.55362 1.18542 2.09191 0.925391 2.66702 0.891083H11.3332C11.9083 0.925391 12.4466 1.18542 12.831 1.61459C13.2153 2.04376 13.4147 2.60735 13.3856 3.18275V16.8173C13.4147 17.3926 13.2153 17.9562 12.831 18.3854C12.4466 18.8146 11.9083 19.0746 11.3332 19.1089ZM2.66702 1.80775C2.33545 1.84277 2.03081 2.00636 1.81848 2.26342C1.60615 2.52049 1.50304 2.85053 1.53127 3.18275V16.8173C1.50304 17.1495 1.60615 17.4795 1.81848 17.7366C2.03081 17.9936 2.33545 18.1572 2.66702 18.1923H11.3332C11.6648 18.1572 11.9694 17.9936 12.1817 17.7366C12.3941 17.4795 12.4972 17.1495 12.4689 16.8173V3.18275C12.4972 2.85053 12.3941 2.52049 12.1817 2.26342C11.9694 2.00636 11.6648 1.84277 11.3332 1.80775H2.66702Z" fill="black"/>
</svg>
