<svg width="34" height="34" viewBox="0 0 34 34" fill="none" xmlns="http://www.w3.org/2000/svg">
<rect x="0.5" y="0.5" width="33" height="33" rx="4.5" stroke="black"/>
<path d="M17.4902 5.86279C11.4526 5.86035 6.5625 10.748 6.5625 16.7808C6.5625 21.5513 9.62158 25.6064 13.8818 27.0957C14.4556 27.2397 14.3677 26.832 14.3677 26.5537V24.6616C11.0547 25.0498 10.9204 22.8574 10.6982 22.4912C10.249 21.7246 9.18701 21.5293 9.50439 21.1631C10.2588 20.7749 11.0278 21.2607 11.9189 22.5767C12.5635 23.5312 13.8208 23.3701 14.458 23.2114C14.5972 22.6377 14.895 22.125 15.3052 21.7271C11.8726 21.1118 10.4419 19.0171 10.4419 16.5269C10.4419 15.3184 10.8398 14.2075 11.6211 13.3115C11.123 11.8345 11.6675 10.5698 11.7407 10.3818C13.1592 10.2549 14.6338 11.3975 14.7485 11.4878C15.5542 11.2705 16.4746 11.1558 17.5049 11.1558C18.54 11.1558 19.4629 11.2754 20.2759 11.4951C20.5518 11.2852 21.9189 10.3037 23.2373 10.4233C23.3081 10.6113 23.8403 11.8467 23.3716 13.3042C24.1626 14.2026 24.5654 15.3232 24.5654 16.5342C24.5654 19.0293 23.125 21.1265 19.6826 21.7319C19.9775 22.0219 20.2116 22.3677 20.3713 22.7492C20.531 23.1306 20.6131 23.5401 20.6128 23.9536V26.7002C20.6323 26.9199 20.6128 27.1372 20.979 27.1372C25.3027 25.6797 28.4155 21.5952 28.4155 16.7832C28.4155 10.748 23.5229 5.86279 17.4902 5.86279Z" fill="black"/>
</svg>
