<svg width="34" height="34" viewBox="0 0 34 34" fill="none" xmlns="http://www.w3.org/2000/svg">
<rect x="0.5" y="0.5" width="33" height="33" rx="4.5" stroke="black"/>
<path d="M18.2812 17C18.2812 20.1063 15.7563 22.625 12.64 22.625C11.9003 22.626 11.1677 22.4813 10.484 22.1991C9.80022 21.917 9.17875 21.5029 8.65502 20.9806C8.1313 20.4583 7.71559 19.8379 7.43162 19.1549C7.14765 18.4719 7.00098 17.7397 7 17C7 13.8925 9.525 11.375 12.64 11.375C13.3798 11.3739 14.1125 11.5184 14.7964 11.8005C15.4803 12.0826 16.1019 12.4966 16.6258 13.019C17.1496 13.5413 17.5655 14.1618 17.8495 14.8448C18.1336 15.5279 18.2803 16.2602 18.2812 17ZM24.4688 17C24.4688 19.925 23.2062 22.295 21.6488 22.295C20.0912 22.295 18.8288 19.9238 18.8288 17C18.8288 14.075 20.0912 11.705 21.6488 11.705C23.2062 11.705 24.4688 14.0763 24.4688 17ZM27 17C27 19.62 26.5562 21.7438 26.0075 21.7438C25.46 21.7438 25.0163 19.6188 25.0163 17C25.0163 14.38 25.46 12.2563 26.0087 12.2563C26.5562 12.2563 27 14.38 27 17Z" fill="black"/>
</svg>
