<svg width="26" height="26" viewBox="0 0 26 26" fill="none" xmlns="http://www.w3.org/2000/svg">
<path d="M4.33329 2.16666C3.73499 2.16666 3.24996 2.65169 3.24996 3.24999V5.41666H5.41663V4.33332H20.5833V21.6667H5.41663V20.5833H3.24996V22.75C3.24996 23.3483 3.73499 23.8333 4.33329 23.8333H21.6666C22.265 23.8333 22.75 23.3483 22.75 22.75V3.24999C22.75 2.65169 22.265 2.16666 21.6666 2.16666H4.33329ZM9.74996 17.3333C9.74996 15.5383 11.205 14.0833 13 14.0833C14.7949 14.0833 16.25 15.5383 16.25 17.3333H9.74996ZM13 13C11.8033 13 10.8333 12.03 10.8333 10.8333C10.8333 9.6367 11.8033 8.66666 13 8.66666C14.1966 8.66666 15.1666 9.6367 15.1666 10.8333C15.1666 12.03 14.1966 13 13 13ZM6.49996 9.74999V7.58332H2.16663V9.74999H6.49996ZM6.49996 11.9167V14.0833H2.16663V11.9167H6.49996ZM6.49996 18.4167V16.25H2.16663V18.4167H6.49996Z" fill="#fff"/>
</svg>
