<svg width="29" height="21" viewBox="0 0 29 21" fill="none" xmlns="http://www.w3.org/2000/svg">
<path d="M2.9 3.25001C2.9 1.65047 4.20047 0.350006 5.8 0.350006H23.2C24.7995 0.350006 26.1 1.65047 26.1 3.25001V14.85H23.2V3.25001H5.8V14.85H2.9V3.25001ZM0 17.17C0 16.6897 0.389688 16.3 0.87 16.3H28.13C28.6103 16.3 29 16.6897 29 17.17C29 19.0913 27.4413 20.65 25.52 20.65H3.48C1.55875 20.65 0 19.0913 0 17.17ZM12.7328 8.37032L11.3281 9.77501L12.7328 11.1797C13.1588 11.6056 13.1588 12.2944 12.7328 12.7158C12.3069 13.1372 11.6181 13.1417 11.1967 12.7158L9.02172 10.5408C8.59578 10.1149 8.59578 9.4261 9.02172 9.00469L11.1967 6.82969C11.6227 6.40376 12.3114 6.40376 12.7328 6.82969C13.1542 7.25563 13.1588 7.94438 12.7328 8.36579V8.37032ZM17.8078 6.82969L19.9828 9.00469C20.4088 9.43063 20.4088 10.1194 19.9828 10.5408L17.8078 12.7158C17.3819 13.1417 16.6931 13.1417 16.2717 12.7158C15.8503 12.2899 15.8458 11.6011 16.2717 11.1797L17.6764 9.77501L16.2717 8.37032C15.8458 7.94438 15.8458 7.25563 16.2717 6.83423C16.6977 6.41282 17.3864 6.40829 17.8078 6.83423V6.82969Z" fill="black"/>
</svg>
