<svg width="27" height="27" viewBox="0 0 27 27" fill="none" xmlns="http://www.w3.org/2000/svg">
<path d="M22.8577 4.47978L13.8981 1.42646C13.79 1.38955 13.645 1.37109 13.5 1.37109C13.355 1.37109 13.21 1.38955 13.1019 1.42646L4.14229 4.47978C3.92344 4.55361 3.74414 4.80674 3.74414 5.03877V17.7583C3.74414 17.9903 3.89443 18.2962 4.07637 18.4412L13.1651 25.5234C13.2574 25.5946 13.3761 25.6315 13.4974 25.6315C13.6187 25.6315 13.7399 25.5946 13.8296 25.5234L22.9184 18.4412C23.1003 18.2988 23.2506 17.993 23.2506 17.7583V5.03877C23.2559 4.80674 23.0766 4.55625 22.8577 4.47978ZM21.3574 17.2521L13.5 23.3745L5.64258 17.2521V5.97744L13.5 3.29854L21.3574 5.97744V17.2521Z" fill="#fff"/>
<path d="M12.1473 11.8942C12.1473 12.4544 12.3699 12.9916 12.7659 13.3877C13.162 13.7837 13.6992 14.0063 14.2593 14.0063C14.8195 14.0063 15.3567 13.7837 15.7528 13.3877C16.1488 12.9916 16.3714 12.4544 16.3714 11.8942C16.3714 11.3341 16.1488 10.7969 15.7528 10.4008C15.3567 10.0047 14.8195 9.78223 14.2593 9.78223C13.6992 9.78223 13.162 10.0047 12.7659 10.4008C12.3699 10.7969 12.1473 11.3341 12.1473 11.8942Z" fill="#fff"/>
<path d="M5.64258 5.97743V17.252L13.5 23.3745L21.3574 17.252V5.97743L13.5 3.29852L5.64258 5.97743ZM16.9462 9.20741C18.4307 10.6919 18.4307 13.0966 16.9462 14.581C15.6674 15.8599 13.703 16.0365 12.237 15.111L10.1936 17.1545C10.1539 17.1937 10.1004 17.2158 10.0446 17.2158C9.98879 17.2158 9.93525 17.1937 9.89561 17.1545L8.99912 16.258C8.95986 16.2183 8.93784 16.1648 8.93784 16.109C8.93784 16.0532 8.95986 15.9997 8.99912 15.96L11.0426 13.9166C10.1171 12.4479 10.2937 10.4862 11.5726 9.20741C13.057 7.72294 15.4617 7.72294 16.9462 9.20741Z" fill="#fff"/>
<path d="M11.0426 13.9166L8.99914 15.96C8.95989 15.9997 8.93787 16.0532 8.93787 16.109C8.93787 16.1648 8.95989 16.2183 8.99914 16.258L9.89563 17.1545C9.97737 17.2362 10.1118 17.2362 10.1936 17.1545L12.237 15.111C13.7031 16.0365 15.6674 15.8599 16.9462 14.581C18.4307 13.0966 18.4307 10.6919 16.9462 9.20741C15.4617 7.72294 13.0571 7.72294 11.5726 9.20741C10.2938 10.4862 10.1171 12.4479 11.0426 13.9166ZM12.767 10.4018C12.9631 10.2056 13.196 10.05 13.4523 9.94381C13.7086 9.83762 13.9833 9.78297 14.2607 9.78297C14.5381 9.78297 14.8128 9.83762 15.0691 9.94381C15.3254 10.05 15.5583 10.2056 15.7544 10.4018C15.9506 10.598 16.1063 10.8308 16.2125 11.0871C16.3186 11.3434 16.3733 11.6181 16.3733 11.8955C16.3733 12.173 16.3186 12.4477 16.2125 12.704C16.1063 12.9603 15.9506 13.1931 15.7544 13.3892C14.9291 14.2145 13.5923 14.2145 12.767 13.3892C11.9417 12.564 11.9417 11.2271 12.767 10.4018Z" fill="#fff"/>
</svg>
