<svg width="25" height="25" viewBox="0 0 25 25" fill="none" xmlns="http://www.w3.org/2000/svg">
<g clip-path="url(#clip0_2169_7)">
<path d="M12.5 14.0625C14.3648 14.0625 16.1532 13.3217 17.4718 12.0031C18.7905 10.6845 19.5312 8.89605 19.5312 7.03125C19.5312 5.16645 18.7905 3.37802 17.4718 2.05941C16.1532 0.74079 14.3648 0 12.5 0C10.6352 0 8.84677 0.74079 7.52816 2.05941C6.20954 3.37802 5.46875 5.16645 5.46875 7.03125C5.46875 8.89605 6.20954 10.6845 7.52816 12.0031C8.84677 13.3217 10.6352 14.0625 12.5 14.0625ZM7.87598 15.625C3.52539 15.625 0 19.1504 0 23.501C0 24.3311 0.673828 25 1.49902 25H23.501C24.3311 25 25 24.3262 25 23.501C25 19.1504 21.4746 15.625 17.124 15.625H7.87598Z" fill="#000"/>
</g>
<defs>
<clipPath id="clip0_2169_7">
<rect width="25" height="25" fill="white"/>
</clipPath>
</defs>
</svg>
