<svg width="25" height="26" viewBox="0 0 25 26" fill="none" xmlns="http://www.w3.org/2000/svg">
<path d="M4.6875 7.3125H20.3125C21.1413 7.3125 21.9362 7.65491 22.5222 8.2644C23.1083 8.8739 23.4375 9.70055 23.4375 10.5625V15.4375C23.4375 16.2995 23.1083 17.1261 22.5222 17.7356C21.9362 18.3451 21.1413 18.6875 20.3125 18.6875H4.6875C3.8587 18.6875 3.06384 18.3451 2.47779 17.7356C1.89174 17.1261 1.5625 16.2995 1.5625 15.4375V10.5625C1.5625 9.70055 1.89174 8.8739 2.47779 8.2644C3.06384 7.65491 3.8587 7.3125 4.6875 7.3125ZM4.6875 8.9375C4.2731 8.9375 3.87567 9.10871 3.58265 9.41345C3.28962 9.7182 3.125 10.1315 3.125 10.5625V15.4375C3.125 15.8685 3.28962 16.2818 3.58265 16.5865C3.87567 16.8913 4.2731 17.0625 4.6875 17.0625H20.3125C20.7269 17.0625 21.1243 16.8913 21.4174 16.5865C21.7104 16.2818 21.875 15.8685 21.875 15.4375V10.5625C21.875 10.1315 21.7104 9.7182 21.4174 9.41345C21.1243 9.10871 20.7269 8.9375 20.3125 8.9375H4.6875ZM1.5625 3.25C1.5625 3.03451 1.64481 2.82785 1.79132 2.67548C1.93784 2.5231 2.13655 2.4375 2.34375 2.4375H22.6562C22.8635 2.4375 23.0622 2.5231 23.2087 2.67548C23.3552 2.82785 23.4375 3.03451 23.4375 3.25C23.4375 3.46549 23.3552 3.67215 23.2087 3.82452C23.0622 3.9769 22.8635 4.0625 22.6562 4.0625H2.34375C2.13655 4.0625 1.93784 3.9769 1.79132 3.82452C1.64481 3.67215 1.5625 3.46549 1.5625 3.25ZM1.5625 22.75C1.5625 22.5345 1.64481 22.3278 1.79132 22.1755C1.93784 22.0231 2.13655 21.9375 2.34375 21.9375H22.6562C22.8635 21.9375 23.0622 22.0231 23.2087 22.1755C23.3552 22.3278 23.4375 22.5345 23.4375 22.75C23.4375 22.9655 23.3552 23.1722 23.2087 23.3245C23.0622 23.4769 22.8635 23.5625 22.6562 23.5625H2.34375C2.13655 23.5625 1.93784 23.4769 1.79132 23.3245C1.64481 23.1722 1.5625 22.9655 1.5625 22.75Z" fill="#fff"/>
</svg>
